<svg xmlns="http://www.w3.org/2000/svg" xmlns:xlink="http://www.w3.org/1999/xlink" width="512" zoomAndPan="magnify" viewBox="0 0 384 383.999986" height="512" preserveAspectRatio="xMidYMid meet" version="1.0"><defs><g/><clipPath id="1ccf615728"><rect x="0" width="380" y="0" height="370"/></clipPath></defs><g transform="matrix(1, 0, 0, 1, 1, 7)"><g clip-path="url(#1ccf615728)"><g fill="#ffffff" fill-opacity="1"><g transform="translate(1.038963, 293.223243)"><g><path d="M 104.90625 2.84375 C 85.382812 2.84375 68.421875 -0.046875 54.015625 -5.828125 C 39.617188 -11.609375 28.507812 -20.425781 20.6875 -32.28125 C 12.875 -44.132812 8.914062 -59.175781 8.8125 -77.40625 L 66.5 -77.40625 C 66.894531 -70.832031 68.632812 -65.226562 71.71875 -60.59375 C 74.8125 -55.96875 79.125 -52.484375 84.65625 -50.140625 C 90.1875 -47.796875 96.789062 -46.625 104.46875 -46.625 C 110.9375 -46.625 116.410156 -47.421875 120.890625 -49.015625 C 125.378906 -50.609375 128.816406 -52.820312 131.203125 -55.65625 C 133.597656 -58.5 134.796875 -61.816406 134.796875 -65.609375 C 134.796875 -68.992188 133.675781 -71.976562 131.4375 -74.5625 C 129.195312 -77.15625 125.5625 -79.5 120.53125 -81.59375 C 115.5 -83.6875 108.847656 -85.53125 100.578125 -87.125 L 78.3125 -91.765625 C 58.1875 -95.941406 42.46875 -103.1875 31.15625 -113.5 C 19.851562 -123.8125 14.203125 -137.585938 14.203125 -154.828125 C 14.203125 -168.972656 18.035156 -181.375 25.703125 -192.03125 C 33.378906 -202.695312 43.988281 -210.992188 57.53125 -216.921875 C 71.082031 -222.847656 86.726562 -225.8125 104.46875 -225.8125 C 122.59375 -225.8125 138.226562 -222.820312 151.375 -216.84375 C 164.53125 -210.863281 174.695312 -202.394531 181.875 -191.4375 C 189.050781 -180.476562 192.738281 -167.625 192.9375 -152.875 L 135.09375 -152.875 C 134.59375 -160.25 131.800781 -166.003906 126.71875 -170.140625 C 121.644531 -174.273438 114.273438 -176.34375 104.609375 -176.34375 C 98.535156 -176.34375 93.453125 -175.59375 89.359375 -174.09375 C 85.273438 -172.601562 82.210938 -170.535156 80.171875 -167.890625 C 78.128906 -165.253906 77.109375 -162.242188 77.109375 -158.859375 C 77.109375 -155.273438 78.15625 -152.1875 80.25 -149.59375 C 82.34375 -147 85.679688 -144.753906 90.265625 -142.859375 C 94.847656 -140.972656 100.675781 -139.28125 107.75 -137.78125 L 125.984375 -134.046875 C 138.335938 -131.460938 148.972656 -128.101562 157.890625 -123.96875 C 166.804688 -119.832031 174.101562 -114.945312 179.78125 -109.3125 C 185.457031 -103.6875 189.613281 -97.3125 192.25 -90.1875 C 194.894531 -83.0625 196.21875 -75.21875 196.21875 -66.65625 C 196.21875 -51.8125 192.582031 -39.207031 185.3125 -28.84375 C 178.039062 -18.476562 167.601562 -10.601562 154 -5.21875 C 140.40625 0.15625 124.039062 2.84375 104.90625 2.84375 Z M 104.90625 2.84375 "/></g></g></g><g fill="#ffffff" fill-opacity="1"><g transform="translate(180.401135, 293.223243)"><g><path d="M 13.75 0 L 13.75 -222.671875 L 109.390625 -222.671875 C 126.234375 -222.671875 140.929688 -219.429688 153.484375 -212.953125 C 166.035156 -206.484375 175.769531 -197.34375 182.6875 -185.53125 C 189.613281 -173.726562 193.078125 -159.90625 193.078125 -144.0625 C 193.078125 -128.125 189.539062 -114.347656 182.46875 -102.734375 C 175.394531 -91.128906 165.457031 -82.164062 152.65625 -75.84375 C 139.851562 -69.519531 124.9375 -66.359375 107.90625 -66.359375 L 50.0625 -66.359375 L 50.0625 -114.171875 L 97.28125 -114.171875 C 104.257812 -114.171875 110.210938 -115.390625 115.140625 -117.828125 C 120.078125 -120.273438 123.890625 -123.738281 126.578125 -128.21875 C 129.265625 -132.707031 130.609375 -137.988281 130.609375 -144.0625 C 130.609375 -150.34375 129.265625 -155.671875 126.578125 -160.046875 C 123.890625 -164.429688 120.078125 -167.796875 115.140625 -170.140625 C 110.210938 -172.484375 104.257812 -173.65625 97.28125 -173.65625 L 74.578125 -173.65625 L 74.578125 0 Z M 13.75 0 "/></g></g></g></g></g></svg>